<svg width="32" height="32" viewBox="0 0 32 32" fill="none" xmlns="http://www.w3.org/2000/svg">
<circle cx="16" cy="16" r="16" fill="#B4B4B4"/>
<path d="M20.1666 21C19.2416 21 18.4999 21.7417 18.4999 22.6667C18.4999 23.1087 18.6755 23.5326 18.9881 23.8452C19.3006 24.1577 19.7246 24.3333 20.1666 24.3333C20.6086 24.3333 21.0325 24.1577 21.3451 23.8452C21.6577 23.5326 21.8333 23.1087 21.8333 22.6667C21.8333 22.2246 21.6577 21.8007 21.3451 21.4882C21.0325 21.1756 20.6086 21 20.1666 21ZM6.83325 7.66666V9.33333H8.49992L11.4999 15.6583L10.3666 17.7C10.2416 17.9333 10.1666 18.2083 10.1666 18.5C10.1666 18.942 10.3422 19.3659 10.6547 19.6785C10.9673 19.9911 11.3912 20.1667 11.8333 20.1667H21.8333V18.5H12.1833C12.128 18.5 12.075 18.478 12.0359 18.439C11.9969 18.3999 11.9749 18.3469 11.9749 18.2917C11.9749 18.25 11.9833 18.2167 11.9999 18.1917L12.7499 16.8333H18.9583C19.5833 16.8333 20.1333 16.4833 20.4166 15.975L23.3999 10.5833C23.4583 10.45 23.4999 10.3083 23.4999 10.1667C23.4999 9.94565 23.4121 9.73369 23.2558 9.57741C23.0996 9.42113 22.8876 9.33333 22.6666 9.33333H10.3416L9.55825 7.66666M11.8333 21C10.9083 21 10.1666 21.7417 10.1666 22.6667C10.1666 23.1087 10.3422 23.5326 10.6547 23.8452C10.9673 24.1577 11.3912 24.3333 11.8333 24.3333C12.2753 24.3333 12.6992 24.1577 13.0118 23.8452C13.3243 23.5326 13.4999 23.1087 13.4999 22.6667C13.4999 22.2246 13.3243 21.8007 13.0118 21.4882C12.6992 21.1756 12.2753 21 11.8333 21Z" fill="black"/>
</svg>
